/* XPM */
static char * bb0_xpm[] = {
"48 48 42 1",
" 	c None",
".	c #5D79A5",
"+	c #7989AE",
"@	c #597575",
"#	c #798D89",
"$	c #6995C6",
"%	c #598591",
"&	c #597561",
"*	c #8989B6",
"=	c #333366",
"-	c #F4F4F4",
";	c #898985",
">	c #D2D2D2",
",	c #5DA5CA",
"'	c #E4E4E4",
")	c #050505",
"!	c #FF6633",
"~	c #F46232",
"{	c #EC5F30",
"]	c #DE2D2D",
"^	c #663333",
"/	c #D9A674",
"(	c #FFCC99",
"_	c #0B0B0B",
":	c #785244",
"<	c #4F352C",
"[	c #CC9966",
"}	c #614236",
"|	c #AA7360",
"1	c #2A1C17",
"2	c #35251F",
"3	c #CC3333",
"4	c #FFCC66",
"5	c #CC9933",
"6	c #B72F2F",
"7	c #583E34",
"8	c #3C2922",
"9	c #B57A65",
"0	c #681C1C",
"a	c #030303",
"b	c #1D3B6D",
"c	c #B3CEFA",
".++@#$@%..$@@...$$#$@@#%.++@#$@%.++@#$@%..$@@...",
"&*+%$%#&++##+#$@##$%%.#@&*+%=%#&&*+%$%#&++##+#$@",
"@#$@##$+%%&..#%#+@...#.#@#$=-=$+@#$@##$+%%&..#%#",
"..@#&.#$#;%#.#....&%.#+...=->=#$..@#&.#$#;%#.#..",
"$,#$.@#$.#@*+#.@..%%##&.$=-'>=#$$,#$.@#$.#@*+#.@",
"##$%%.#%#.@+*.++@#=======-''>=#%##$%%.#%#.@+*.++",
"&.+#.#%#+@...+@@==--''''''''''====+#.#%#+@...+@@",
".$.@+.#+$.@++$%=--'''''''''''''''>=@+.#+$.@++$%.",
".$@@..&%.+%$@#=--'''''''''''''''>=@@..&%.+%$@##+",
"+##+#&%.#%$%%=---''''''''''''''>=##+#&%.#%$%%&..",
"$@@..%$..@#.&=------'''''''>>>>>=@@..%$..@#.&.+#",
"##+#...$$#$@.))))!!!))))))!!!))))#+#...$$#$@.++.",
"&...#$@##$%%.))))~~~~))))~~~~))))...#$@##$%%.@@.",
"&%..+%#+@...)))))){{{{{{{{{{))))))..+%#+@...#%%#",
".+.##....&%.)))))))]]]]]]]]))))))).##....&%.+.&.",
"@.&$#.@..%%#))))))))))))))))))))))&$#.@..%%#.@@+",
"@@.#.+*@#$@))))))))))))))))))))))))#.+*@#$@#$#.+",
"...#+@@%$%^//)(((((((((((((((((()//^+@@%$%#+@.@.",
".@##$%.@+%^(/)(((((((((((((((((()/(^$%.@+%.#+*@#",
"&.+$##+#..^((^(((((__((((__(((((^((^##+#...$.$..",
"#+%%&...#$::(^/((((__((((__((((/^(::&...#$@##.$.",
".$&..+#.#<<<[[//(((__((((__(((//[[<<<+#.#%#+@@##",
"+$.@**.##}|||[[[/((__((((__((//[[|||}*.##.....&.",
"%.*%@@.##}|11^[[[////((((/////[[^11|}@.##.@....$",
".++@#$@%.}|11^^[[[[[[/((/[[[[[[^^11|}$@%..$@@...",
"&*+%$%#&+}|11))))^^[[[[[[[[^^))))11|}%#&++##+#$@",
"@#$@##$+%}|2)3))))^^[[[[[[^)))))3))|}#$+%%&..#%#",
"..@#&.#$#}|)))))))))))))))))^))))44)}.#$#;%#.#..",
"$,#$.@#$.})44))))))))3333)))))))5444)@#$.#@*+#.@",
"##$%%.#%#)5444)))3)))^33^)))6)))5445).#%#.@+*.++",
"&.+#.#%#+)5445)))36))))))))63))7)55)}#%#+@...+@@",
".$.@+.#+$})55)77)633333333336)777)))}$@%..$@@...",
".++@#$@%.))))777))6666666666))777))))%#&++##+#$@",
"&*+%$%#&+))8|777)))^^^^^^^^)))7779})))$+%%&..#%#",
"@#$@##$+))::8|77))))))))))))))57|}8<))#$#;%#.#..",
"..@#&.#$)}8<:8|7)))00))))00))))|8::<}))$.#@*+#.@",
"$,#$.@#))}::<::||)0333))3330a||}:<<:}.)%#.@+*.++",
"##$%%.))#<:::<<|:99633))33699}}<<:::<#))+@...+@@",
"&.b#.)))+@<:::|<|::99))))99}}:<::::<+.#)).@++$%.",
".$bb)||)$.@<||||<||::9999}}}:<::::<@..&)))%$b##+",
".$b)||c)b+%$<<|||<<||9::9}}<<::}<<#+#&%)||)b%&..",
"+##bbbb<#%$%%<<||||<<9::9<<}:}}<<@@..%b)|||)&.+#",
"$@@c.bb.b@#.&.+<<||||<::<}}}}<<.##+#...<bcbb.++.",
"##+#...$$#$@.++.<:<||9::9}}<<<.$&...#$@#bb%%c@@.",
"&...#$@##$%%.@@.##.<<9::9<<.#$@#&%..+%#+@...#%%#",
"&%..+%#+@...#%%#$.*+@<::<%..+%#+.+.##....&%.+.&.",
".+.##....&%.+.&.#+@@%$%#.+.##...@.&$#.@..%%#.@@+",
"@.&$#.@..%%#.@@+.#+..@+$@.&$#.@.@@.#.+*@#$@#$#.+"};
