/* XPM */
static char * onda_xpm[] = {
"48 48 12 1",
" 	c None",
".	c #5D79A5",
"+	c #7989AE",
"@	c #597575",
"#	c #798D89",
"$	c #6995C6",
"%	c #598591",
"&	c #597561",
"*	c #8989B6",
"=	c #898985",
"-	c #5DA5CA",
";	c #000000",
".++@#$@%..$@@...$$#$@@#%.++@#$@%.++@#$@%..$@@...",
"&*+%$%#&++##+#$@##$%%.#@&*+%$%#&&*+%$%#&++##+#$@",
"@#$@##$+%%&..#%#+@...#.#@#$@##$+@#$@##$+%%&..#%#",
"..@#&.#$#=%#.#....&%.#+...@#&.#$..@#&.#$#=%#.#..",
"$-#$.@#$.#@*+#.@..%%##&.$-#$.@#$$-#$.@#$.#@*+#.@",
"##$%%.#%#.@+*.++@#$@##+###$%%.#%##$%%.#%#.@+*.++",
"&.+#.#%#+@...+@@%$%#+@*%&.+#.#%#&.+#.#%#+@...+@@",
".$.@+.#+$.@++$%.@+%.#+...$.@+.#+.$.@+.#+$.@++$%.",
".$@@..&%.+%$@##+#...$$#$.$@@..&%.$@@..&%.+%$@##+",
"+##+#&%.#%$%%&...#$@##$%+##+#&%.+##+#&%.#%$%%&..",
"$@@..%$..@#.&.+#.#%#+@..$@@..%$.$@@..%$..@#.&.+#",
"##+#...$$#$@.++.$+....&%##+#...$##+#...$$#$@.++.",
"&...#$@##$%%.@@.##.@..%%&...#$@#&...#$@##$%%.@@.",
"&%..+%#+@...#%%#$.*+@#$@&%..+%#+&%..+%#+@...#%%#",
".+.##....&%.+.&.#+@@%$%#.+.##....+.##....&%.+.&.",
"@.&$#.@..%%#.@@+.#+..@+$@.&$#.@.@.&$#.@..%%#.@@+",
"@@.#.+*@#$@#$#.++@#$@%..@@.#.+*@@@.#.+*@#$@#$#.+",
"...#+@@%$%#+@.@.$%$%#&$+...#+@@%...#+@@%$%#+@.@.",
".@##$%.@+%.#+*@#.@##$+%%.@##$%.@.@##$%.@+%.#+*@#",
"&.+$##+#...$.$..@#.&#$#=&.+$##+#&.+$##+#...$.$..",
"#+%%&...#$@##.$.#$@.#$.##+%%&...#+%%&...#$@##.$.",
".$&..+#.#%#+@@##$%%.#%#..$&..+#..$&..+#.#%#+@@##",
"+$.@**.##.....&.+#.#%#+@+$.@**.#+$.@**.##.....&.",
"%.*%@@.##.@....$@@+.#+$.%.*%@@.#%.*%@@.##.@....$",
".++@#$@%..$@@...$$#$@@#%.++@#$@%.++@#$@%..$@@...",
"&*+%$%#&++##+#$@##$%%.#@&*+%$%#&&*+%$%#&++##+#$@",
"@#$@##$+%%&..#%#+@...#.#@#$@##$+@#$@##$+%%&..#%#",
"..@#&.#$#=%#.#....&%.#+...@#&.#$..@#&.#$#=%#.#..",
"$-#$.@#$.#@*+#.@..%%;;;;;;;;;;;;$-#$.@#$.#@*+#.@",
"##$%%.#%#.@+*.++@#$@;;;;;;;;;;;;##$%%.#%#.@+*.++",
"&.+#.#%#+@...+@@%$%#+@*%&;;#.#%#&.+#.#%#+@...+@@",
".$.@+.#+$.@++$%.@+%.#+...;;@+.#+.++@#$@%..$@@...",
".++@#$@%..$@@...$$#$@@#%.;;@#$@%&*+%$%#&++##+#$@",
"&*+%$%#&++##+#$@##$%%.#@&;;%$%#&@#$@##$+%%&..#%#",
"@#$@##$+%%&..#%#+@...#.#@;;@##$+..@#&.#$#=%#.#..",
"..@#&.#$#=%#.#....&%.#+..;;#&.#$$-#$.@#$.#@*+#.@",
"$-#$.@#$.#@*+#.@..%%##&.$;;$.@#$##$%%.#%#.@+*.++",
"##$%%.#%#.@+*.++@#$@##+##;;%%.#%&.+#.#%#+@...+@@",
"&.+#.#%#+@...+@@%$%#+@*%&;;#.#%#.$.@+.#+$.@++$%.",
".$.@+.#+$.@++$%.@+%.#+...;;@+.#+.$@@..&%.+%$@##+",
".$@@..&%.+%$@##+#...$$#$.;;@..&%+##+#&%.#%$%%&..",
"+##+#&%.#%$%%&...#$@##$%+##+#&%.$@@..%$..@#.&.+#",
"$@@..%$..@#.&.+#.#%#+@..$@@..%$.##+#...$$#$@.++.",
"##+#...$$#$@.++.$+....&%##+#...$&...#$@##$%%.@@.",
"&...#$@##$%%.@@.##.@..%%&...#$@#&%..+%#+@...#%%#",
"&%..+%#+@...#%%#$.*+@#$@&%..+%#+.+.##....&%.+.&.",
".+.##....&%.+.&.#+@@%$%#.+.##...@.&$#.@..%%#.@@+",
"@.&$#.@..%%#.@@+.#+..@+$@.&$#.@.@@.#.+*@#$@#$#.+"};
