/* XPM */
static char * wfire48_xpm[] = {
"48 48 78 1",
" 	c None",
".	c #5D79A5",
"+	c #FF0000",
"@	c #7989AE",
"#	c #597575",
"$	c #798D89",
"%	c #6995C6",
"&	c #598591",
"*	c #000000",
"=	c #CE0404",
"-	c #597561",
";	c #8989B6",
">	c #FF4800",
",	c #FF7800",
"'	c #E54A02",
")	c #F35C01",
"!	c #FC4300",
"~	c #E41E02",
"{	c #E13802",
"]	c #F76601",
"^	c #5DA5CA",
"/	c #F80001",
"(	c #E95D02",
"_	c #E34102",
":	c #DA0203",
"<	c #F47901",
"[	c #FF9C00",
"}	c #EA0202",
"|	c #EF3201",
"1	c #E91102",
"2	c #FF1900",
"3	c #FF1400",
"4	c #FF5100",
"5	c #FA0000",
"6	c #DD0103",
"7	c #FF2200",
"8	c #E50002",
"9	c #F05501",
"0	c #F10101",
"a	c #FE8100",
"b	c #F31401",
"c	c #ED5501",
"d	c #F22101",
"e	c #FC2700",
"f	c #FB5600",
"g	c #FF0300",
"h	c #D70904",
"i	c #FF3C00",
"j	c #F38901",
"k	c #FE7400",
"l	c #FE6900",
"m	c #FF6C00",
"n	c #FF9400",
"o	c #EC4602",
"p	c #DE0403",
"q	c #DE4102",
"r	c #E21402",
"s	c #FE7B00",
"t	c #F4B909",
"u	c #EF961C",
"v	c #F28101",
"w	c #E42402",
"x	c #FF5600",
"y	c #FFB500",
"z	c #FA3101",
"A	c #EFA211",
"B	c #FF9900",
"C	c #FE8400",
"D	c #E81702",
"E	c #FFA300",
"F	c #E30902",
"G	c #E63C02",
"H	c #FFB801",
"I	c #FF870B",
"J	c #F23601",
"K	c #FE1D00",
"L	c #EB2101",
"M	c #898985",
".+@#$%#&..****..%%$%##$&.@@#$%#&.**#==*&==*+=*..",
"**@==*$==*+=*$%#$$%&&.$#-;@&%&$--====+=**=++>=*#",
"====+=**=++>=*&$@#...$.$#$%#$$%@#*=+>>++==>,,+=$",
"*=+>>++==>,,+=....-&.$@...#$-.$%.**=+')!~>>{]>=.",
"**=+')!~>>{]>=.#..&&$$-.%^$%.#$%%==*+,/(_:<[}|=*",
"==*+,/(_:<[}|=*@#$%#$$@$$$%&&.$&$*=++:1234567/8*",
"*=++:1234567/8*#&%&$@#;&-.@$.$&$-.*=>90a~bcdefg=",
".*=>90a~bcdefg=*#@&.$@...%.#@.$@.,.=+>hijklmno>+",
",%=+>hijklmno>+*$...%%$%.%##..-&.*#==pqirstuv[>+",
"*$==pqirstuv[>+*.$%#$$%&@$$@$-&.@*=*=wlxyzABC,>=",
"*=*=wlxyzABC,>=*.$&$@#..%##..&%.%*=+>DxEFxGHI>+=",
"*=+>DxEFxGHI>+=.%@....-&$$@$...%$$*=+J8KiL[,>+=*",
"-*=+J8KiL[,>+=*.$$.#..&&-...$%#$-..*=+++|,>>+=*.",
"-&*=+++|,>>+=*&$%.;@#$%#-&..@&$@-&..***=+++==*&$",
".@.***=+++==*.-.$@##&%&$.@.$$....@.$$..*****@.-.",
"#.-%$.*****$.##@.$@..#@%#.-%$.#.#.-%$.#..&&$.##@",
"##.$.@;#$%#$%$.@@+$%#&..##****;###.$.@;#$%#$%$.@",
"...$@##&%&$@#.#.**%==*%==*+=*##&...$@##&%&$@#.#.",
".#$$%&.#@&.$@;#$====+=**=++>=*.#.#$$%&.#@&.$@;#$",
"-.@%$$@$...%.%..*=+>>++==>,,+=@$-.@%$$@$...%.%..",
"$@&&-...$%#$$.%.**=+')!~>>{]>=..$@&&-...$%#$$.%.",
".%-..@$.$&$@##$$==*+,/(_:<[}|=*..%-..@$.$&$@##$$",
"@%.#;;.$$.....-.*=++:1234567/8*$@%.#;;.$$.....-.",
"&.;&##.$$.#....%#*=>90a~bcdefg=*&.;&##.$$.#....%",
".@@#$%#&..%##...,%=+>hijklmno>+*.@@#$%#&..%##...",
"-;@&%&$-@@$$@$%#*$==pqirstuv[>+*-;@&%&$-@@$$@$%#",
"#$%#$$%@&&-..$&$*=*=wlxyzABC,>=*#$%#$$%@&&-..$&$",
"..#$-.$%$M&$.$..*=+>DxEFxGHI>+=%..#$-.$%$M&$.$..",
"%^$%.#$%.$#;@$.#.*=+J8KiL[,>+=*%%^$%.#$%.$#;@$.#",
"$$%&&.$&$.#@;.@@#$*=+++|,>>+=*$&$$%&&.$&$.#@;.@@",
"-.@$.$&$@#...@##&%&***=+++==*$&$-.@$.$&$@#...@##",
".%.#@.$@%.#@@%&.#@&.$@*****#@.$@.@@#$%#&..%##...",
".+@#$%#&..****..%%$%##$&.@@#$%#&-+@&%&$-@@****%#",
"**@==*$==*+=*$%#$$%&&.$#-;@&%&$-**%==*%==*+=*$&$",
"====+=**=++>=*&$@#...$.$#$%#$$%@====+=**=++>=*..",
"*=+>>++==>,,+=....-&.$@...#$-.$%*=+>>++==>,,+=.#",
"**=+')!~>>{]>=.#..&&$$-.%^$%.#$%**=+')!~>>{]>=@@",
"==*+,/(_:<[}|=*@#$%#$$@$$$%&&.$&==*+,/(_:<[}|=*#",
"*=++:1234567/8*#&%&$@#;&-.@$.$&$*=++:1234567/8*.",
".*=>90a~bcdefg=*#@&.$@...%.#@.$@.*=>90a~bcdefg=*",
",%=+>hijklmno>+*$...%%$%.%##..-&,$=+>hijklmno>+*",
"*$==pqirstuv[>+*.$%#$$%&@$$@$-&.*#==pqirstuv[>+*",
"*=*=wlxyzABC,>=*.$&$@#..%##..&%.*=*=wlxyzABC,>=*",
"*=+>DxEFxGHI>+=.%@....-&$$@$...%*=+>DxEFxGHI>+=.",
"-*=+J8KiL[,>+=*.$$.#..&&-...$%#$-*=+J8KiL[,>+=*$",
"-&*=+++|,>>+=*&$%.;@#$%#-&..@&$@.@*=+++|,>>+=*-.",
".@.***=+++==*.-.$@##&%&$.@.$$...#.-***=+++==*##@",
"#.-%$.*****$.##@.$@..#@%#.-%$.#.##.$.@*****$%$.@"};
