/* XPM */
static char * tiro_xpm[] = {
"48 48 563 2",
"  	c None",
". 	c #5D79A5",
"+ 	c #7989AE",
"@ 	c #597575",
"# 	c #798D89",
"$ 	c #6995C6",
"% 	c #598591",
"& 	c #8E9EB7",
"* 	c #D2D1D1",
"= 	c #CBCBCE",
"- 	c #6E8583",
"; 	c #597561",
"> 	c #8989B6",
", 	c #84A1A9",
"' 	c #99A7BB",
") 	c #9CAAA9",
"! 	c #D2D6DA",
"~ 	c #DDDFEA",
"{ 	c #DFE2EA",
"] 	c #A6B7D0",
"^ 	c #A8B8D4",
"/ 	c #A0B2B6",
"( 	c #8C9B8F",
"_ 	c #819383",
": 	c #617B7E",
"< 	c #7C91B8",
"[ 	c #768AAB",
"} 	c #B6BBC4",
"| 	c #CFCFD2",
"1 	c #8297BD",
"2 	c #DBDDDE",
"3 	c #E8E9ED",
"4 	c #E2E6F5",
"5 	c #D7DCF3",
"6 	c #B3B9D0",
"7 	c #B3B7C4",
"8 	c #B2BBB7",
"9 	c #8FACCC",
"0 	c #B4B1BC",
"a 	c #A2A6B3",
"b 	c #8FA0A6",
"c 	c #8FACCB",
"d 	c #627C7A",
"e 	c #898985",
"f 	c #738AB4",
"g 	c #B6BEDE",
"h 	c #BEC0C7",
"i 	c #CFCCCC",
"j 	c #D9D7E0",
"k 	c #D0D4EA",
"l 	c #E2E3E7",
"m 	c #E9E8E4",
"n 	c #DADCE2",
"o 	c #AFB8D9",
"p 	c #A7A9AF",
"q 	c #7A887A",
"r 	c #6E86AB",
"s 	c #D1D1D0",
"t 	c #B1A7C0",
"u 	c #A7A4CA",
"v 	c #B9C0DC",
"w 	c #CECDD1",
"x 	c #96A3A3",
"y 	c #5DA5CA",
"z 	c #6D85B1",
"A 	c #B5BDDE",
"B 	c #D8DEF1",
"C 	c #DEDDE6",
"D 	c #DCD8DA",
"E 	c #E5E5E6",
"F 	c #E9E9E8",
"G 	c #E4E3DF",
"H 	c #BFC2C9",
"I 	c #7B8BAF",
"J 	c #D0D3DB",
"K 	c #C7C7C6",
"L 	c #999B9A",
"M 	c #B3B3B0",
"N 	c #B8BED5",
"O 	c #A8ACD1",
"P 	c #9A94B9",
"Q 	c #A89DBC",
"R 	c #B3B6D7",
"S 	c #8DA0C6",
"T 	c #738685",
"U 	c #B4B9BA",
"V 	c #D9DBE7",
"W 	c #D9DBE1",
"X 	c #E1E0E0",
"Y 	c #E3E2E4",
"Z 	c #D5D8E9",
"` 	c #C6CBE1",
" .	c #CBCFE2",
"..	c #C7CCE1",
"+.	c #A0ACD0",
"@.	c #9CA9C9",
"#.	c #9EA4AF",
"$.	c #999A9B",
"%.	c #8A94AE",
"&.	c #9D9FC4",
"*.	c #B4B4D8",
"=.	c #BABBD6",
"-.	c #A09CA8",
";.	c #B5B6C0",
">.	c #9CAEB9",
",.	c #5A7676",
"'.	c #788D8B",
").	c #B2BCC1",
"!.	c #DBDAD7",
"~.	c #D1D2D8",
"{.	c #D2D4DE",
"].	c #D6DAE6",
"^.	c #D7D9E9",
"/.	c #C7CEE8",
"(.	c #C5CAE1",
"_.	c #C4C7D8",
":.	c #B5B9CE",
"<.	c #8994AF",
"[.	c #9FA4B4",
"}.	c #B3B7BD",
"|.	c #7588A0",
"1.	c #7E879F",
"2.	c #A4A8BA",
"3.	c #BEC0CD",
"4.	c #9F9EAA",
"5.	c #A4A8A8",
"6.	c #7C8FAB",
"7.	c #7B8E8A",
"8.	c #8DA9B7",
"9.	c #879997",
"0.	c #5D8793",
"a.	c #C2C5CC",
"b.	c #DCDEEA",
"c.	c #DADDEB",
"d.	c #BDBEC0",
"e.	c #CCCFE1",
"f.	c #BFC6E6",
"g.	c #BEC5DF",
"h.	c #E3E4E5",
"i.	c #E4E8F6",
"j.	c #D3D5DE",
"k.	c #B7B7B5",
"l.	c #9D9E9C",
"m.	c #A4A3A0",
"n.	c #C9CAD3",
"o.	c #CFD6E7",
"p.	c #7D8F8D",
"q.	c #768A86",
"r.	c #8D9895",
"s.	c #A3A2AA",
"t.	c #9593B9",
"u.	c #6D808B",
"v.	c #6E87B0",
"w.	c #DDE2F0",
"x.	c #9BA7C5",
"y.	c #7B8E8C",
"z.	c #ACB5D5",
"A.	c #C5CBE5",
"B.	c #D2D5EC",
"C.	c #CCD0E6",
"D.	c #D1D2D5",
"E.	c #D0D2DF",
"F.	c #C7CCE8",
"G.	c #B8BFDD",
"H.	c #B6BEDF",
"I.	c #D7DAE8",
"J.	c #D4D7D2",
"K.	c #7D8F8A",
"L.	c #999C98",
"M.	c #949AAC",
"N.	c #838FB6",
"O.	c #9492B4",
"P.	c #9C93B2",
"Q.	c #B5B2CC",
"R.	c #BDC8E4",
"S.	c #5A7477",
"T.	c #B1B9B9",
"U.	c #A6B0C1",
"V.	c #647E6D",
"W.	c #5D8894",
"X.	c #617DA7",
"Y.	c #CCD2DF",
"Z.	c #C8CDE3",
"`.	c #B2BAD6",
" +	c #87A8D5",
".+	c #CCD0DF",
"++	c #B1B9C3",
"@+	c #9CAAB2",
"#+	c #D4D9EF",
"$+	c #BBC4E3",
"%+	c #B6B6D5",
"&+	c #A6A8BC",
"*+	c #759195",
"=+	c #9FA3A0",
"-+	c #929FA5",
";+	c #7F99B0",
">+	c #AAAED3",
",+	c #7A86B3",
"'+	c #A3A6BD",
")+	c #C4C7D2",
"!+	c #A6B2C7",
"~+	c #9AA5BF",
"{+	c #889892",
"]+	c #BAC3BE",
"^+	c #ACB8D1",
"/+	c #97A4B3",
"(+	c #78969C",
"_+	c #ACB6C3",
":+	c #A0AAC5",
"<+	c #92A2A3",
"[+	c #D5DAEF",
"}+	c #BFC7E4",
"|+	c #A8AAD0",
"1+	c #9097B8",
"2+	c #71939B",
"3+	c #A3ACB7",
"4+	c #A7B3C1",
"5+	c #9FB5C6",
"6+	c #C4C9DF",
"7+	c #8C9FC5",
"8+	c #8AA6C6",
"9+	c #9DA6A7",
"0+	c #9DAAC1",
"a+	c #8B9DC4",
"b+	c #6F87B1",
"c+	c #8995B1",
"d+	c #BABBBD",
"e+	c #627CA4",
"f+	c #92A2B8",
"g+	c #CCCED4",
"h+	c #ACB6D2",
"i+	c #B2BBDC",
"j+	c #BCC3E4",
"k+	c #AEBBD4",
"l+	c #7D9AA4",
"m+	c #A9B6CF",
"n+	c #B5BCE0",
"o+	c #B8BEDA",
"p+	c #DBD7D9",
"q+	c #C0C5DD",
"r+	c #95A4B6",
"s+	c #B9C1D2",
"t+	c #A4B2D1",
"u+	c #7A8E89",
"v+	c #657FA7",
"w+	c #617CA6",
"x+	c #618A97",
"y+	c #A1B0CE",
"z+	c #CAD1EA",
"A+	c #DDE2F4",
"B+	c #C7CEE6",
"C+	c #C0C3C9",
"D+	c #98A3A1",
"E+	c #7A9FCA",
"F+	c #D3D3D3",
"G+	c #98A5A5",
"H+	c #657FA9",
"I+	c #7E918E",
"J+	c #AEB6BD",
"K+	c #D8DCEA",
"L+	c #E1E5F4",
"M+	c #C8C8CF",
"N+	c #B2AABB",
"O+	c #B1B0C8",
"P+	c #A4B8CA",
"Q+	c #99A5A3",
"R+	c #7D8CAE",
"S+	c #6781AC",
"T+	c #7D9191",
"U+	c #5F7AA6",
"V+	c #6F99C9",
"W+	c #87A3B4",
"X+	c #C8CAC8",
"Y+	c #DCDCDF",
"Z+	c #DADBE7",
"`+	c #BABDC7",
" @	c #A199BA",
".@	c #ACA9C8",
"+@	c #A0B0D0",
"@@	c #748A93",
"#@	c #B2BBDA",
"$@	c #8896B9",
"%@	c #71898E",
"&@	c #CBCFE8",
"*@	c #D3D4DA",
"=@	c #D8D6D6",
"-@	c #D3D2DC",
";@	c #B7BFDE",
">@	c #9F9EC0",
",@	c #868D9D",
"'@	c #6881AC",
")@	c #AFB8D8",
"!@	c #95A2C4",
"~@	c #CAD3E7",
"{@	c #DADEF1",
"]@	c #CDCFE2",
"^@	c #C5C6C9",
"/@	c #A9A8AB",
"(@	c #7F8BA2",
"_@	c #789DCA",
":@	c #C9CBD7",
"<@	c #D7D9EB",
"[@	c #C3C3C2",
"}@	c #939E9A",
"|@	c #7C8C9B",
"1@	c #C4CAD2",
"2@	c #D6D6E3",
"3@	c #C7C9D6",
"4@	c #B7B7B7",
"5@	c #88938F",
"6@	c #6D8BA1",
"7@	c #D3D7E5",
"8@	c #D8DAE2",
"9@	c #C0BFBD",
"0@	c #AAAAAA",
"a@	c #8E8F8C",
"b@	c #828B87",
"c@	c #7A8D89",
"d@	c #CFD7E5",
"e@	c #DDDFE8",
"f@	c #CAC9C8",
"g@	c #ADADAD",
"h@	c #808F8A",
"i@	c #9BA6A2",
"j@	c #B0B6C0",
"k@	c #9FABA8",
"l@	c #C2C7D6",
"m@	c #DBDADE",
"n@	c #CFCFCD",
"o@	c #BAB9B7",
"p@	c #7E8DA3",
"q@	c #A0ABC1",
"r@	c #CBCEDF",
"s@	c #8DA6AD",
"t@	c #ADB5B3",
"u@	c #BBBFC8",
"v@	c #D3D2D7",
"w@	c #CBCBCD",
"x@	c #BDC0CD",
"y@	c #8392A9",
"z@	c #949FBD",
"A@	c #B3B5D8",
"B@	c #5E7AA6",
"C@	c #B8C1E0",
"D@	c #CCCED9",
"E@	c #C4C5CA",
"F@	c #B5BDDB",
"G@	c #85979A",
"H@	c #637C76",
"I@	c #B6C3DA",
"J@	c #D2D4E1",
"K@	c #CBCAC9",
"L@	c #ABACAF",
"M@	c #839390",
"N@	c #758B86",
"O@	c #B6C0D5",
"P@	c #D3D5E1",
"Q@	c #CDCCC8",
"R@	c #AEADAC",
"S@	c #83938D",
"T@	c #6E8FA2",
"U@	c #BDC5D9",
"V@	c #D2D5E6",
"W@	c #C9CACF",
"X@	c #AAABA9",
"Y@	c #82929A",
"Z@	c #74898F",
"`@	c #8DA8C6",
" #	c #818FB0",
".#	c #B9C1DB",
"+#	c #D3D7F0",
"@#	c #C7CADE",
"##	c #A2A0A3",
"$#	c #818CA8",
"%#	c #617983",
"&#	c #C2C3C3",
"*#	c #81A2C6",
"=#	c #C1C2CE",
"-#	c #E2E3ED",
";#	c #D8D9EF",
">#	c #A79BBB",
",#	c #85828A",
"'#	c #6B7A8D",
")#	c #7F928E",
"!#	c #6B96C6",
"~#	c #C1C5D4",
"{#	c #D6D7E3",
"]#	c #C3C6CA",
"^#	c #89919A",
"/#	c #737A94",
"(#	c #637B93",
"_#	c #BAC5D8",
":#	c #D0D0D9",
"<#	c #B4B9B5",
"[#	c #758F8D",
"}#	c #6D7F97",
"|#	c #657AA1",
"1#	c #C3C5D1",
"2#	c #D6D2D3",
"3#	c #B4BBBD",
"4#	c #75969E",
"5#	c #778F8B",
"6#	c #7A8B98",
"7#	c #C2C7CD",
"8#	c #D6D2D2",
"9#	c #B4BBBC",
"0#	c #778E8B",
"a#	c #788C86",
"b#	c #BAC1D0",
"c#	c #D4D5E8",
"d#	c #B9C1CE",
"e#	c #758F8F",
"f#	c #74889D",
"g#	c #8896AB",
"h#	c #869A9E",
"i#	c #C1C6D3",
"j#	c #D8D9EC",
"k#	c #C4C8D5",
"l#	c #87948F",
"m#	c #75879B",
"n#	c #929BA9",
"o#	c #A9ABA9",
"p#	c #6A95C6",
"q#	c #BFC2CF",
"r#	c #DDD9DD",
"s#	c #D1CCCF",
"t#	c #A4A2A5",
"u#	c #7D8E8A",
"v#	c #919D99",
"w#	c #A3A7AF",
"x#	c #7A8E8A",
"y#	c #A5B1D3",
"z#	c #CDCFDE",
"A#	c #D3CCD3",
"B#	c #A599B9",
"C#	c #7D8C90",
"D#	c #A3A7A7",
"E#	c #A5B1CE",
"F#	c #C5CBE6",
"G#	c #CECDDC",
"H#	c #ADA8B5",
"I#	c #80908F",
"J#	c #8E9895",
"K#	c #9D9FA8",
"L#	c #5A7573",
"M#	c #9B9BB7",
"N#	c #ADB7C8",
"O#	c #C5CBE4",
"P#	c #C9CCE0",
"Q#	c #81928D",
"R#	c #819391",
"S#	c #919C9F",
"T#	c #748BA0",
"U#	c #7C8D8D",
"V#	c #8F9BB7",
"W#	c #BFC0C2",
"X#	c #BDBCBA",
"Y#	c #C7CAE0",
"Z#	c #A2A2A2",
"`#	c #828F8B",
" $	c #718D90",
".$	c #7D96A6",
"+$	c #A59BB9",
"@$	c #868DB1",
"#$	c #98B2D8",
"$$	c #CFD3EC",
"%$	c #B3B3B6",
"&$	c #BFC1CE",
"*$	c #C9CDE3",
"=$	c #AAAAA9",
"-$	c #908F88",
";$	c #7B8596",
">$	c #8291B2",
",$	c #AEACAF",
"'$	c #6F8F98",
")$	c #889CAE",
"!$	c #CECED7",
"~$	c #D8D6E3",
"{$	c #B4B4B5",
"]$	c #C3C3C7",
"^$	c #D2CFDE",
"/$	c #A89FB7",
"($	c #888F8E",
"_$	c #778887",
":$	c #7B919A",
"<$	c #91A9AE",
"[$	c #6682A8",
"}$	c #5A8692",
"|$	c #A9ADCB",
"1$	c #BABBCA",
"2$	c #CBC9C6",
"3$	c #D5D2D3",
"4$	c #B1AFAF",
"5$	c #BFBDBB",
"6$	c #CDC8CD",
"7$	c #A49BB2",
"8$	c #7F8D9D",
"9$	c #7D8C95",
"0$	c #8A959C",
"a$	c #8CA3A9",
"b$	c #7F92A7",
"c$	c #82928D",
"d$	c #5E79A5",
"e$	c #968FB4",
"f$	c #B5AFBF",
"g$	c #C9C9C7",
"h$	c #A3A6A6",
"i$	c #ABACAE",
"j$	c #B8B7B9",
"k$	c #A0A0A2",
"l$	c #7E8CA9",
"m$	c #8C8FB5",
"n$	c #A99CB6",
"o$	c #A2A0A1",
"p$	c #A8A7A9",
"q$	c #89948E",
"r$	c #5E7AA5",
"s$	c #9991B0",
"t$	c #B6AFC0",
"u$	c #C2C2BF",
"v$	c #AFAFAD",
"w$	c #8BA7AC",
"x$	c #949FB3",
"y$	c #A698BB",
"z$	c #9894B7",
"A$	c #7C8D94",
"B$	c #8B9695",
"C$	c #A6A2A4",
"D$	c #A1A0A0",
"E$	c #A59CB4",
"F$	c #868A96",
"G$	c #7F88AD",
"H$	c #B2B8C4",
"I$	c #D3D7E4",
"J$	c #A2ADB3",
"K$	c #AEB1B7",
"L$	c #BFB9C7",
"M$	c #B8B7C5",
"N$	c #859593",
"O$	c #788F8D",
"P$	c #8B9EA1",
"Q$	c #A9AAAA",
"R$	c #9396B1",
"S$	c #667BA9",
"T$	c #86A6AF",
"U$	c #C0CCE6",
"V$	c #B2B8CE",
"W$	c #A3ACB3",
"X$	c #ADB2B1",
"Y$	c #BFBEBC",
"Z$	c #C1C1BE",
"`$	c #8A9894",
" %	c #6E8A8A",
".%	c #718FA3",
"+%	c #939DAB",
"@%	c #6780A5",
"#%	c #647B7A",
"$%	c #A5A6A8",
"%%	c #87A4AF",
"&%	c #899DA1",
"*%	c #9F9FA1",
"=%	c #A6A8A7",
"-%	c #769AC4",
". + + @ # $ @ % . . $ @ @ . . . $ $ # $ @ @ # % & * = - # $ @ % . + + @ # $ @ % . . $ @ @ . . . ",
"; > + % $ % # ; + + # # + # $ @ # # $ % , ' # ) ! ~ { ] ^ / # ( _ > + % $ % # ; + + # # + # $ @ ",
"@ # $ @ # # $ + % % ; . . # % # + : < [ } | 1 2 3 4 5 6 7 8 9 0 a b c d # # $ + % % ; . . # % # ",
". . @ # ; . # $ # e % # . # . . . f g h i j k l m n o p q r s t u v w x ; . # $ # e % # . # . . ",
"$ y # $ . @ # $ . # @ > + # . @ . z A B C D E F G H I J K L M N O P Q R S @ # $ . # @ > + # . @ ",
"# # $ % % . # % # . @ + > . + + T U V W X Y Z `  ...+.@.#.$.%.&.*.=.-.;.>.. # % # . @ + > . + + ",
"; . + # . # % # + @ . . . + ,.'.).| !.~.{.].^./.(._.:.<.[.}.|.1.2.3.4.5.6.7.8.9.+ @ . . . + @ @ ",
". $ . @ + . # + $ . @ + + $ 0.a.b.c.d.e.f.g.h.i.j.k.l.m.n.o.p.q.r.s.t.u.+ v.w.x.$ . @ + + $ % . ",
". $ @ @ . . ; % . + % $ @ # y.z.A.B.C.D.E.F.G.H.I.J.K.L.M.N.O.P.Q.R.S.T.U.. V.W.. + % $ @ # # + ",
"+ # # + # ; % . # % $ % % ; X.Y.Z.`. +.+++@+#+$+%+&+*+=+-+;+>+,+'+)+!+~+{+; % . # % $ % % ; . . ",
"$ @ @ . . % $ . . @ # . ; . I ]+^+/+(+_+:+<+[+}+|+1+2+3+4+5+6+7+8+9+0+a+b+% $ . . @ # . ; . + # ",
"# # + # . . . $ $ # $ @ . + + . $ c+d+e+f+g+h+i+j+k+l+m+n+o+p+q+r+# + s+t+. . $ $ # $ @ . + + . ",
"; . . . # $ @ # # $ % % . @ @ . # u+v+@ w+v+x+y+z+A+B+C+D+E+F+G+; . . H+I+$ @ # # $ % % . @ @ . ",
"; % . . + % # + @ . . . # % % # $ . > + @ # $ J+K+L+M+N+O+P+Q+R+; % . . + % # + @ . . . # % % # ",
". + . # # . . . . ; % . + S+T+U+# + @ @ % V+W+X+Y+Z+`+ @.@+@. . . + . # # . . . . ; % . + . ; . ",
"@ . ; $ # . @ . . % % # . @@#@$@. # + . . %@&@*@=@-@;@>@,@. @ . @ . ; $ # . @ . . % % # . @ @ + ",
"@ @ . # . + > @ # $ @ # $ # '@)@!@@ # $ @ % '@~@{@]@^@/@(@+ > @ @ @ . # . + > @ # $ @ # $ # . + ",
". . . # + @ @ % $ % # + @ . @ < _@% $ % # ; $ :@<@C.[@}@|@@ @ % . . . # + @ @ % $ % # + @ . @ . ",
". @ # # $ % . @ + % . # + > @ # . @ # # $ + % 1@2@3@4@5@6@% . @ . @ # # $ % . @ + % . # + > @ # ",
"; . + $ # # + # . . . $ . $ . . @ # . ; # $ # 7@8@9@0@a@b@c@+ # ; . + $ # # + # . . . $ . $ . . ",
"# + % % ; . . . # $ @ # # . $ . # $ @ . # $ . d@e@f@g@h@i@j@U+. # + % % ; . . . # $ @ # # . $ . ",
". $ ; . . + # . # % # + @ @ # # $ % % . k@/ # l@m@n@o@p@q@r@7.. . $ ; . . + # . # % # + @ @ # # ",
"+ $ . @ > > . # # . . . . . ; . + # . # s@t@+ u@v@w@x@y@z@A@B@# + $ . @ > > . # # . . . . . ; . ",
"% . > % @ @ . # # . @ . . . . $ @ @ + . # + $ C@D@E@F@G@H@@ . # % . > % @ @ . # # . @ . . . . $ ",
". + + @ # $ @ % . . $ @ @ . . . $ $ # $ @ @ # I@J@K@L@M@N@$ @ % . + + @ # $ @ % . . $ @ @ . . . ",
"; > + % $ % # ; + + # # + # $ @ # # $ % % . # O@P@Q@R@S@T@% # ; ; > + % $ % # ; + + # # + # $ @ ",
"@ # $ @ # # $ + % % ; . . # % # + @ . . . # . U@V@W@X@Y@Z@c@`@ #@ # $ @ # # $ + % % ; . . # % # ",
". . @ # ; . # $ # e % # . # . . . . ; % . # + .#+#@###$#%#r &#*#. . @ # ; . # $ # e % # . # . . ",
"$ y # $ . @ # $ . # @ > + # . @ . . % % # # ; =#-#;#>#,#'#@ )#!#$ y # $ . @ # $ . # @ > + # . @ ",
"# # $ % % . # % # . @ + > . + + @ # $ @ # # + ~#{#]#^#/#(#. # % # # $ % % . # % # . @ + > . + + ",
"; . + # . # % # + @ . . . + @ @ % $ % # + @ > _#:#<#[#}#|## % # ; . + # . # % # + @ . . . + @ @ ",
". $ . @ + . # + $ . @ + + $ % . @ + % . # + . 1#2#3#4#5#6#. # + . + + @ # $ @ % . . $ @ @ . . . ",
". + + @ # $ @ % . . $ @ @ . . . $ $ # $ @ @ # 7#8#9#4#0#a#$ @ % ; > + % $ % # ; + + # # + # $ @ ",
"; > + % $ % # ; + + # # + # $ @ # # $ % % . # b#c#d#e#f#g#h#c@; @ # $ @ # # $ + % % ; . . # % # ",
"@ # $ @ # # $ + % % ; . . # % # + @ . . . # . i#j#k#l#m#n#o#p#+ . . @ # ; . # $ # e % # . # . . ",
". . @ # ; . # $ # e % # . # . . . . ; % . # + q#r#s#t#u#v#w#x#$ $ y # $ . @ # $ . # @ > + # . @ ",
"$ y # $ . @ # $ . # @ > + # . @ . . % % # # ; y#z#A#B#C#v#D#x#$ # # $ % % . # % # . @ + > . + + ",
"# # $ % % . # % # . @ + > . + + @ # $ @ # # + E#F#G#H#I#J#K## % ; . + # . # % # + @ . . . + @ @ ",
"; . + # . # % # + @ . . . + @ @ % $ % # + L#M#N#O#P#X@Q#R#S#T#U#. $ . @ + . # + $ . @ + + $ % . ",
". $ . @ + . # + $ . @ + + $ % . @ + % . # V#W#X#3@Y#Z#`# $.$+$@$. $ @ @ . . ; % . + % $ @ # # + ",
". $ @ @ . . ; % . + % $ @ # # + # . . . #$$$C.%$&$*$=$-$;$>$,$'$+ # # + # ; % . # % $ % % ; . . ",
"+ # # + # ; % . # % $ % % ; . . . # p#)$b#!$~${$]$^$/$($_$:$<$[$$ @ @ . . % $ . . @ # . ; . + # ",
"$ @ @ . . % $ . . @ # . ; . + # . # }$|$1$2$3$4$5$6$7$8$9$0$a$b$c$# + # . . . $ $ # $ @ . + + . ",
"# # + # . . . $ $ # $ @ . + + . $ + d$e$f$g$[@h$i$j$k$l$m$n$o$p$q$. . . # $ @ # # $ % % . @ @ . ",
"; . . . # $ @ # # $ % % . @ @ . # # r$s$t$u$v$w$x$y$z$A$B$C$D$E$F$% . . + % # + @ . . . # % % # ",
"; % . . + % # + @ . . . # % % # $ . > G$H$I$6 J$K$L$M$N$O$P$Q$R$S$+ . # # . . . . ; % . + . ; . ",
". + . # # . . . . ; % . + . ; . # + @ @ T$U$V$W$X$Y$Z$`$ %.%+%@%@ . ; $ # . @ . . % % # . @ @ + ",
"@ . ; $ # . @ . . % % # . @ @ + . # + . . #%$%%%&%*%=%-%# . @ . @ @ . # . + > @ # $ @ # $ # . + "};
