/* XPM */
static char * bc_xpm[] = {
"48 48 53 1",
" 	c None",
".	c #5D79A5",
"+	c #7989AE",
"@	c #597575",
"#	c #798D89",
"$	c #6995C6",
"%	c #598591",
"&	c #333366",
"*	c #597561",
"=	c #8989B6",
"-	c #E4E4E4",
";	c #898985",
">	c #5DA5CA",
",	c #7F7FB7",
"'	c #050505",
")	c #663333",
"!	c #FFCC99",
"~	c #CC9966",
"{	c #2A1C17",
"]	c #AA7360",
"^	c #CC3333",
"/	c #FFCC66",
"(	c #CC9933",
"_	c #E5CC99",
":	c #FFFFFF",
"<	c #4F352C",
"[	c #B88A2D",
"}	c #3E4659",
"|	c #2A1D19",
"1	c #3E4846",
"2	c #303E54",
"3	c #3A5770",
"4	c #614236",
"5	c #4A637A",
"6	c #1D3B6D",
"7	c #4C6996",
"8	c #3C5988",
"9	c #426799",
"0	c #557EAF",
"a	c #785244",
"b	c #617881",
"c	c #496672",
"d	c #61759D",
"e	c #3A5F7E",
"f	c #4A618D",
"g	c #3A5767",
"h	c #2B496E",
"i	c #2C4A7A",
"j	c #2B496A",
"k	c #497287",
"l	c #496664",
"m	c #3E5B71",
"n	c #405D8C",
".++@#$@%..$@@...$&&&@@#%.++@#$@%.++@#$@%..$@@...",
"*=+%$%#*++##+#$@#&--&.#@*=+%$%#**=+%$%#*++##+#$@",
"@#$@##$+%%*..#%#+&---&.#@#$@##$+@#$@##$+%%*..#%#",
"..@#*.#$#;%#.#...&----&...@#*.#$..@#*.#$#;%#.#..",
"$>#$.@#$.#@=+#&&&&-----&&&&&&&#$$>#$.@#$.#@=+#.@",
"##$%%.#%#.@+&&----,---,-------&&##$%%.#%#.@+=.++",
"*.+#.#%#+@...&-----------------&*.+#.#%#+@...+@@",
".$.@+.#+$.@++$&-----------------&&.@+.#+$.@++$%.",
".$@@..*%.+%$@##&,----------------&@@..*%.+%$@##+",
"+##+#*%.#%$%&&--------------------&&#*%.#%$%%*..",
"$@@..%$..@#.&----------------------&.%$..@#.*.+#",
"##+#...$$#$@''-----------------,--''...$$#$@.++.",
"*...#$@##$%%''--,---------------'-''#$@##$%%.@@.",
"*%..+%#+@...''''------------,---''''+%#+@...#%%#",
".+.##....*%.''''--,---------,,--''''#....*%.+.*.",
"@.*$#.@..%%)!'''--''--,-----''--'''!).@..%%#.@@+",
"@@.#.+=@#$@)!~''-'''-'------'''-''~!)+=@#$@#$#.+",
"...#+@@%$%#)!!)'''''''---'''''''')!!)@@%$%#+@.@.",
".@##$%.@+%.)!!))''''''--''''''''))!!)%.@+%.#+=@#",
"*.+$##+#...$)~~~~''''''''''''''~~~~)##+#...$.$..",
"#+%%*...#$@#))~~~~''''''''''''~~~~))*...#$@##.$.",
".$*..+#.#%#+@))~~~~~~~~~~~~~~~~~~))..+#.#%#+@@##",
"+$.@==.##....{))~~~~!!!!!!!!~~~~)){@==.##.....*.",
"%.=%@@.##.@.{]''''^^))))))))^^'''']{@@.##.@....$",
".++@#$@%..${]''^''''''''''''''''^'']{$@%..$@@...",
"*=+%$%#*++{]'/^^''''((_::_((''''^^/']{#*++##+#$@",
"@#$@##$+%%{'//)''''(((:::_((('''')//'{$+%%*..#%#",
"..@#*.#$#;{'///''')(/_//////()'''///'{#$#;%#.#..",
"$>#$.@#$.#''///''')//////////)'''///''#$.#@=+#.@",
"##$%%.#%#.{'''''''))////////))'''''''{#%#.@+=.++",
"*.+#.#%#+@''{{{''''))))))))))''''{{{''%#+@...+@@",
".$.@+.#+$.']{{<''''[[[[[[[[[[''''<{{]'@%..$@@...",
".++@#$@%.'']{<<'''''(((((((('''''<<{]''*++##+#$@",
"*=+%$%#*}'{]{<<''''''''''''''''''<<{]{'}%%*..#%#",
"@#$@##$+''{]{<<|''''''''''''''''|<<{]{''#;%#.#..",
"..@#*.#'''{]{<<<|''''''''''''''|<<<{]{1''#@=+#.@",
"$>#$.@1''1{]]]]]]]]]]]]]]]]]]]]]]]]]]{#''2@+=.++",
"##$%%.''1.{{{{{{{{{{{{{{{{{{{{{{{{{{{{%1''2..+@@",
"*.+#.'''+3{44444444444444444444444444{5+'''++$%.",
".$.@'444'6{44444444444444444444444444{6'444'@##+",
".$@66:6666{44444444444444444444444444{66666:6*..",
"+#:66*%756{{{{{44{4444{{{{{{{4{44{{{{{687@#66.+#",
"$@@:.%$786{44444444444444444444444444{690#:@.:+.",
"##+#...0:6{aaaaaaaaaaaaaaaaaaaaaaaaaa{65b$%%.@@.",
"*...#$@b#6{aaaaaaaaaaaaaaaaaaaaaaaaaa{6+c...#:%#",
"*%..+%#d@866666666666666666666666666668.7*%.+.*.",
".+.##....*e8f8g85f33e9e58f855888hij958@..%%#.@@+",
"@.*$#.@..%kb7ccd7bd77cd0c7l0b7c7mmnb7d=@#$@#$#.+"};
