/* XPM */
static char * bd0_xpm[] = {
"48 48 49 1",
" 	c None",
".	c #5D79A5",
"+	c #7989AE",
"@	c #597575",
"#	c #798D89",
"$	c #6995C6",
"%	c #598591",
"&	c #597561",
"*	c #8989B6",
"=	c #333366",
"-	c #E4E4E4",
";	c #898985",
">	c #5DA5CA",
",	c #B3B3B3",
"'	c #4E4E4E",
")	c #050505",
"!	c #FF6633",
"~	c #EC5F30",
"{	c #727272",
"]	c #DE2D2D",
"^	c #663333",
"/	c #FFCC99",
"(	c #CC9966",
"_	c #E2B689",
":	c #FFCC66",
"<	c #CC9933",
"[	c #CC3333",
"}	c #2A1C17",
"|	c #AA7360",
"1	c #6A473B",
"2	c #DFB258",
"3	c #BA9346",
"4	c #A37B2B",
"5	c #1A110E",
"6	c #8B6823",
"7	c #573C32",
"8	c #785244",
"9	c #614236",
"0	c #33231D",
"a	c #51372D",
"b	c #462F27",
"c	c #3C2821",
"d	c #1D3B6D",
"e	c #4F352C",
"f	c #3E2B24",
"g	c #211815",
"h	c #232C42",
"i	c #FFFFFF",
"j	c #112039",
".++@#$@%..$@@...$$#$@@#%.++@#$@%.++@#$@%..$@@...",
"&*+%$%#&++##===@##$%%.#@&*+%$%#&&*+%$%#&++##+#$@",
"@#$@##$+%%&.=--=+@...#.#@#$@##$+@#$@##$+%%&..#%#",
"..@#&.#$#;%#=---=.&%.#+...@#&.#$..@#&.#$#;%#.#..",
"$>#$.@#$.#@*=----=========#$.@#$$>#$.@#$.#@*+#.@",
"##$%%.#%#.@+=-------------==%.#%##$%%.#%#.@+*.++",
"&.+#.=======----------------=#%#&.+#.#%#+@...+@@",
".$.@+.=----------------------=#+.$.@+.#+$.@++$%.",
".$@@..&=----------------------=%.$@@..&%.+%$@##+",
"+##+#&%.=----------------------=+##+#&%.#%$%%&..",
"$@@..%$.=-------,')))))))!!!!)))$@@..%$..@#.&.+#",
"##+#...$=-----,'))))))))))!!!!))##+#...$$#$@.++.",
"&...#$@#)---,')))))))))))))~~~~~&...#$@##$%%.@@.",
"&%..+%#+)-,{))))))))))))))))]]]]&%..+%#+@...#%%#",
".+.##...)))))))))))))))))))))))^.+.##....&%.+.&.",
"@.&$#.@.)))))))))))))))))))))))^@.&$#.@..%%#.@@+",
"@@.#.+*@))))))))))))))//////(((^@@.#.+*@#$@#$#.+",
"...#+@@%)))))))))))))_////////(^...#+@@%$%#+@.@.",
".@##$%.@+))))))))))_(_///))////^.@##$%.@+%.#+*@#",
"&.+$##+#.))))))__))_(_///))////^&.+$##+#...$.$..",
"#+%%&...#$))))((//)_(_///))////^#+%%&...#$@##.$.",
".$&..+#.#%))))((//)___///))///^..$&..+#.#%#+@@##",
"+$.@**.##..)^^((//(_(_______//^#+$.@**.##.....&.",
"%.*%@@.##.@)^^((//(((((((___/^.#%.*%@@.##.@....$",
".++@#$@%..$@)))((((((((((((_^$@%.++@#$@%..$@@...",
"&*+%$%#&++##)))((((((((((^^^$%#&&*+%$%#&++##+#$@",
"@#$@##$+%%&..#):<)<)))[[[)^^^#$+@#$@##$+%%&..#%#",
"..@#&}}}}}}}})):<<)))))))))))}}}}}}}}}}}#;%#.#..",
"$>#$}|||||||)::^<):::)))))))))||||||||1}}}}}+#.@",
"##$%}|}}}}}})::<^):::<))))))))}}}}}}}}}||||}}.++",
"&.+#}|}}}}}})2<<<))<<<)))))))))}}}))}}}}}}}|}+@@",
".$.@}|}}}}}})3444)))5))))))))))}})[[)}}}}}}}|}..",
".++@}|}}}}}}})666))))55))))))))})[[[)}}}}|||}#$@",
"&*+%}||||||||||||||||7))7||||||||||||||||88}.#%#",
"@#$@}999999999999999990))0999999999999888a}#.#..",
"..@#}9999999999999999990))099999999998b}c}@*+#.@",
"$>#d}99999999999999999990))099999999b}b8}.@+*.++",
"##$d}}}}}}eeeeee9}9}99e}}}))e9e999}}b88}+@...+@@",
"&.+d}9999999999999999999999))999999988}+$.@++$%.",
".$.d}9888888888888888888888f)g8888888h&%.+%$@##+",
".$@d}98888888888888888888888g)f8888}idd.#%$%%&..",
"+##+ddddddddddddddddddddddddd))jdddddd$..@#.&.+#",
"$@@.dddddddddddddddddddddddddd))ddid...$$#$@.++.",
"##+#...$$#$@.++.$+....&%##+#..)})ddi#$@##$%%.@@.",
"&...#$@##$%%.@@.##.@..%%&...#dd)9)..+%#+@...#%%#",
"&%..+%#+@...#%%#$.*+@#$@&%..+%#d)d.##....&%.+.&.",
".+.##....&%.+.&.#+@@%$%#.+.##...@.&$#.@..%%#.@@+",
"@.&$#.@..%%#.@@+.#+..@+$@.&$#.@.@@.#.+*@#$@#$#.+"};
