/* XPM */
static char * be0_xpm[] = {
"48 48 49 1",
" 	c None",
".	c #5D79A5",
"+	c #7989AE",
"@	c #597575",
"#	c #798D89",
"$	c #6995C6",
"%	c #598591",
"&	c #597561",
"*	c #8989B6",
"=	c #333366",
"-	c #E4E4E4",
";	c #898985",
">	c #5DA5CA",
",	c #050505",
"'	c #FF6633",
")	c #4E4E4E",
"!	c #B3B3B3",
"~	c #EC5F30",
"{	c #DE2D2D",
"]	c #727272",
"^	c #663333",
"/	c #CC9966",
"(	c #FFCC99",
"_	c #E2B689",
":	c #CC3333",
"<	c #CC9933",
"[	c #FFCC66",
"}	c #2A1C17",
"|	c #6A473B",
"1	c #AA7360",
"2	c #DFB258",
"3	c #1A110E",
"4	c #A37B2B",
"5	c #BA9346",
"6	c #8B6823",
"7	c #785244",
"8	c #573C32",
"9	c #51372D",
"0	c #614236",
"a	c #33231D",
"b	c #3C2821",
"c	c #462F27",
"d	c #1D3B6D",
"e	c #4F352C",
"f	c #232C42",
"g	c #211815",
"h	c #3E2B24",
"i	c #FFFFFF",
"j	c #112039",
".++@#$@%..$@@...$$#$@@#%.++@#$@%.++@#$@%..$@@...",
"&*+%$%#&++##+#$@##$%%.#@&*+%$%#&&===$%#&++##+#$@",
"@#$@##$+%%&..#%#+@...#.#@#$@##$+=--=##$+%%&..#%#",
"..@#&.#$#;%#.#....&%.#+...@#&.#=---=&.#$#;%#.#..",
"$>#$.@#$.#@*+#.@..%%##=========----=.@#$.#@*+#.@",
"##$%%.#%#.@+*.++@#$@==-------------=%.#%#.@+*.++",
"&.+#.#%#+@...+@@%$%=----------------=======..+@@",
".$.@+.#+$.@++$%.@+=----------------------=@++$%.",
".$@@..&%.+%$@##+#=----------------------=+%$@##+",
"+##+#&%.#%$%%&..=----------------------=#%$%%&..",
"$@@..%$..@#.&.+#,,,'''',,,,,,,)!-------=.@#.&.+#",
"##+#...$$#$@.++.,,'''',,,,,,,,,,)!-----=$#$@.++.",
"&...#$@##$%%.@@.~~~~~,,,,,,,,,,,,,)!---,#$%%.@@.",
"&%..+%#+@...#%%#{{{{,,,,,,,,,,,,,,,,]!-,@...#%%#",
".+.##....&%.+.&.^,,,,,,,,,,,,,,,,,,,,,,,.&%.+.&.",
"@.&$#.@..%%#.@@+^,,,,,,,,,,,,,,,,,,,,,,,.%%#.@@+",
"@@.#.+*@#$@#$#.+^///((((((,,,,,,,,,,,,,,#$@#$#.+",
"...#+@@%$%#+@.@.^/((((((((_,,,,,,,,,,,,,$%#+@.@.",
".@##$%.@+%.#+*@#^((((,,(((_/_,,,,,,,,,,@+%.#+*@#",
"&.+$##+#...$.$..^((((,,(((_/_,,__,,,,,,#...$.$..",
"#+%%&...#$@##.$.^((((,,(((_/_,((//,,,,..#$@##.$.",
".$&..+#.#%#+@@##$^(((,,(((___,((//,,,,#.#%#+@@##",
"+$.@**.##.....&.+^((_______/_/((//^^,*.##.....&.",
"%.*%@@.##.@....$@@^(___///////((//^^,@.##.@....$",
".++@#$@%..$@@...$$#^_////////////,,,#$@%..$@@...",
"&*+%$%#&++##+#$@##$%^^^//////////,,,$%#&++##+#$@",
"@#$@##$+%%&..#%#+@.^^^,:::,,,<,<[,$@##$+%%&..#%#",
"..@#&.#$}}}}}}}}}}},,,,,,,,,,,<<[,,}}}}}}}}#.#..",
"$>#$}}}}}|11111111,,,,,,,,,[[[,<^[[,1111111}+#.@",
"##$}}1111}}}}}}}}},,,,,,,,<[[[,^<[[,}}}}}}1}*.++",
"&.+}1}}}}}}},,}}},,,,,,,,,<<<,,<<<2,}}}}}}1}.+@@",
".$}1}}}}}}},::,}},,,,,,,,,,3,,,4445,}}}}}}1}@...",
".++}111}}}},:::,},,,,,,,,33,,,,666,}}}}}}}1}+#$@",
"&*+%}7711111111111111118,,81111111111111111}.#%#",
"@#$@#}9777000000000000a,,a00000000000000000}.#..",
"..@#&.}b}c70000000000a,,a000000000000000000}+#.@",
"$>#$.@#}7c}c00000000a,,a0000000000000000000}d.++",
"##$%%.#%}77c}}000e0e,,}}}e00}0}0eeeeee}}}}}}d+@@",
"&.+#.#%#+}770000000,,0000000000000000000000}d$%.",
".$.@+.#+$.f7777777g,h7777777777777777777770}d##+",
".$@@..&%.ddi}7777h,g77777777777777777777770}d&..",
"+##+#&%.#%ddddddj,,ddddddddddddddddddddddddd&.+#",
"$@@..%$..@#.didd,,dddddddddddddddddddddddddd.++.",
"##+#...$$#$@idd,},....&%##+#...$&...#$@##$%%.@@.",
"&...#$@##$%%.@,0,dd@..%%&...#$@#&%..+%#+@...#%%#",
"&%..+%#+@...#%d,d.*+@#$@&%..+%#+.+.##....&%.+.&.",
".+.##....&%.+.&.#+@@%$%#.+.##...@.&$#.@..%%#.@@+",
"@.&$#.@..%%#.@@+.#+..@+$@.&$#.@.@@.#.+*@#$@#$#.+"};
