/* XPM */
static char * wfogo48_xpm[] = {
"48 48 25 1",
" 	c None",
".	c #5D79A5",
"+	c #7989AE",
"@	c #597575",
"#	c #798D89",
"$	c #6995C6",
"%	c #598591",
"&	c #597561",
"*	c #8989B6",
"=	c #898985",
"-	c #5DA5CA",
";	c #D67910",
">	c #EEAE55",
",	c #992800",
"'	c #6D1000",
")	c #B64800",
"!	c #C66100",
"~	c #F6C671",
"{	c #A53800",
"]	c #5D0800",
"^	c #E69128",
"/	c #FFD67D",
"(	c #852000",
"_	c #FFE695",
":	c #FFFFFF",
".++@#$@%..$@@...$$#$@@#%.++@#$@%.++@#$@%..$@@...",
"&*+%$%#&++##+#$@##$%%.#@&*+%$%#&&*+%$%#&++##+#$@",
"@#$@##$+%%&..#%#+@...#.#@#$@##$+@#$@##$+%%&..#%#",
"..@#&.#$#=%#.#....&%.#+...@#&.#$..@#&.#$#=%#.#..",
"$-#$.@#$.#@*+#.@..;%##&.$-#$.@#$$-#$.@#$.#@*+#.@",
"##$%%.#%#.@+*.++@#$@##+###$%%.#%##$%%.#%#.@+*.++",
"&.+#.#%#+@...+@@%>%#+@*%&.+#.#%#&.+#.#%#+@...+@@",
".$.@+.#+$.@++$%.@+,.#+...$.@+.#+.$.@+.#+$.@++$%.",
".$@@..&%.+%$@##+#...$$#$.$@@..&%.$@@..&%.+%$@##+",
"+##+#&%.#%$%%&..'#>@##$%+##+#&%.+##+#&%.#%$%%&..",
"$@@..%$.'@#.&.+#.#)#+@..$@@..%$.$@@..%$..@#.&.+#",
"##+#...$$'$@.++.$+.;!,&%##+#...$##+#...$$#$@.++.",
"&...#$@##$%%.@@.##~@..%%&...#$@#&...#$@##$%%.@@.",
"&%..+%#+@...,{{)$.*+@#$@&%..+]#+&%..+%#+@...#%%#",
".+.##....&%)!;);;+@!~^%#.+.##....+.##....&%.+.&.",
"@.&$#.@..%,{,);^~~////;$@.&$#^@.@.&$#.@..%%#.@@+",
"@@.#.+*@#()));;;~_////~.@@.#.+*@@@.#.+*@#$@#$#.+",
"...#+]@%$,;^);^^~__///~)...#+@@%...#+@@%$%#+@.@.",
".@##$%.@+);;^^~/_/___//~~,))$%.@.@##$%.@+%.#+*@#",
"&.+$##+#.)^~/~~/_/_/__//~//~~#+#&.+$##+#...$.$..",
"#+%%&...#;^~/_::_//_/__//////^..#+%%&...#$@##.$.",
".$&..+#.#));^~:_///____/~/_///^^.$&..+#.#%#+@@##",
"+$.@**.##)!^^>/_/////////_/~//~~^^;@**.##.....&.",
"%.*%@@.#,)!!^>~_~///////_/~~~~//_~//~~~##.@....$",
".++@#$@%.)!;^~~//////_//////////______~/;.$@@...",
"&*+%$%#&!)^~~//~/_//____/_/__:_::::/_//~/>##+#$@",
"@#$@##$,~^;^>/////_/_______:::_______///~~&..#%#",
"..@#&.#!~/^>>~~~_______::::::_______~~/~/~%#.#..",
"$-#$.@#)>~>~~~~/_________:::___/___///~///~*+#.@",
"##$%%.#!^~^~~//___::_:_::::___/_/____////~^+*.++",
"&.+#.#%#;^>/~~//__:_____::::::__/////////~...+@@",
".$.@+.#+)^^~~~_/_/_//_:_::::::_//_//_/////$@@...",
".++@#$@%{^>~///__///_______::_:_/____////)##+#$@",
"&*+%$%#&+^~__/~/___///__/_____/___::_///~%&..#%#",
"@#$@##$+%)^~///~/_//~/~~//////_//_~_////~=%#.#..",
"..@#&.#'#=)^~~~/////~));,~//////___/___/,#@*+#.@",
"$-#$.@#$.#@);^^~~~~>^#&.$-~!^~~~____///)#.@+*.++",
"##$%%.#%#.@+{));^^^^##+###$%%{^~//__/~%#+@...+@@",
"&.+#.#%#+@...+@@%$%#+@*%&.+#.#%#.$~~>.#+$.@++$%.",
".$.@+.#+$.@++$%.@+%.#+...$.@+.#+.$@@..&%.+%$@##+",
".$@@..&%.+%$@##+#...$$#$.$@@..&%+##+#&%.#%$%%&..",
"+##+#&%.#%$%%&...#$@##$%+##+#&%.$@@..%$..@#.&.+#",
"$@@..%$..@#.&.+#.#%#+@..$@@..%$.##+#...$$#$@.++.",
"##+#...$$#$@.++.$+....&%##+#...$&...#$@##$%%.@@.",
"&...#$@##$%%.@@.##.@..%%&...#$@#&%..+%#+@...#%%#",
"&%..+%#+@...#%%#$.*+@#$@&%..+%#+.+.##....&%.+.&.",
".+.##....&%.+.&.#+@@%$%#.+.##...@.&$#.@..%%#.@@+",
"@.&$#.@..%%#.@@+.#+..@+$@.&$#.@.@@.#.+*@#$@#$#.+"};
